<?xml version="1.0" encoding="UTF-8"?>
<svg width="18px" height="18px" viewBox="0 0 18 18" version="1.1" xmlns="http://www.w3.org/2000/svg" xmlns:xlink="http://www.w3.org/1999/xlink">
    <title>info</title>
    <g id="Page-1" stroke="none" stroke-width="1" fill="none" fill-rule="evenodd">
        <g id="info">
            <circle id="Oval" fill="#B81237" cx="9" cy="9" r="9"></circle>
            <path d="M8.90011556,5.14201284 C9.57495968,5.14201284 10.0651766,5.00513408 10.3707664,4.73137656 C10.6763562,4.45761904 10.8291511,4.11383052 10.8291511,3.70001102 C10.8291511,3.32439023 10.701822,3.02039205 10.4471639,2.78801648 C10.1925057,2.55564091 9.75958685,2.43945313 9.14840726,2.43945313 C8.54996059,2.43945313 8.08839268,2.57474027 7.76370352,2.84531457 C7.43901437,3.11588886 7.27666979,3.46126899 7.27666979,3.88145495 C7.27666979,4.28254156 7.40399887,4.59290619 7.65865703,4.81254885 C7.91331519,5.03219151 8.3271347,5.14201284 8.90011556,5.14201284 Z M11.2588868,16.0000001 C11.5262778,16.0000001 11.7061302,15.9554349 11.7984437,15.8663046 C11.8907573,15.7771742 11.9369141,15.6211961 11.9369141,15.3983702 C11.9369141,15.1373456 11.8827993,14.9017868 11.7745695,14.6916938 L11.7745695,14.6916938 L10.6477072,14.6916938 C10.6158749,13.8767877 10.5967755,13.0077667 10.5904091,12.0846309 L10.5904091,12.0846309 L10.5904091,7.38618788 C10.5904091,7.11879681 10.5729013,6.91029544 10.5378858,6.76068377 C10.5028704,6.6110721 10.3628084,6.51080045 10.1176999,6.45986882 C9.87259141,6.40893719 9.41261511,6.38347137 8.73777098,6.38347137 C7.84010097,6.38347137 7.24483752,6.42485332 6.95198064,6.50761723 C6.65912375,6.59038113 6.51269531,6.81002379 6.51269531,7.16654521 C6.51269531,7.40210401 6.56681017,7.60901377 6.67503989,7.78727448 C6.98062968,7.78727448 7.21300525,7.81433191 7.3721666,7.86844677 C7.53132795,7.92256162 7.64910735,8.05625716 7.7255048,8.26953337 C7.80190225,8.48280958 7.85124226,8.82023164 7.87352485,9.28179955 C7.89283643,9.68182508 7.90377966,10.4369077 7.90635453,11.5470475 L7.90694874,12.0846309 C7.90694874,13.0077667 7.8910326,13.8767877 7.85920033,14.6916938 L7.85920033,14.6916938 L7.07612649,14.6916938 C6.87876642,14.6916938 6.7355212,14.7346674 6.64639085,14.8206145 C6.55726049,14.9065617 6.51269531,15.0482153 6.51269531,15.2455753 C6.51269531,15.4811341 6.56681017,15.7326091 6.67503989,16.0000001 L6.67503989,16.0000001 L11.2588868,16.0000001 Z" id="i" fill="#FFFFFF" fill-rule="nonzero"></path>
        </g>
    </g>
</svg>