<?xml version="1.0" encoding="UTF-8"?>
<svg width="44px" height="44px" viewBox="0 0 44 44" version="1.1" xmlns="http://www.w3.org/2000/svg" xmlns:xlink="http://www.w3.org/1999/xlink">
    <title>ServiceNSW-icon</title>
    <g id="Page-1" stroke="none" stroke-width="1" fill="none" fill-rule="evenodd">
        <g id="ServiceNSW-icon" transform="translate(1.000000, 1.000000)" fill-rule="nonzero">
            <path d="M20.8,0.2 C9.3,0.2 0,9.5 0,21 C0,32.5 9.3,41.8 20.8,41.8 C32.3,41.8 41.6,32.5 41.6,21 C41.6,9.5 32.3,0.2 20.8,0.2" id="Path" stroke="#FFFFFF" fill="#C60C30"></path>
            <g id="Group" transform="translate(1.000000, 11.000000)" fill="#FFFFFF">
                <path d="M32.8,14.6 C32.6,14.3 32.2,14 31.8,14 L29.7,14 C28.8,14 27.4,14.1 25.6,14.2 C25.5,16.3 25.4,18.3 25.1,20.2 C26.5,20.7 28,21.4 29.5,22.2 C32.4,18.5 32.9,16 33,15.4 C33,15.1 32.9,14.8 32.8,14.6 M14.9,11.4 C14.8,11.2 14.7,10.9 14.5,10.9 C14.4,10.9 14.3,10.9 14.2,11 C14.2,11 14.1,11.1 13.9,11.2 C13.7,11.4 13.4,11.6 13,11.9 C12.5,12.4 11.4,13.3 10.2,14.7 C8.6,16.5 6.5,19.1 5.2,22.2 C7.7,25.1 11,27.3 14.9,28.3 C15.5,26.1 15.8,23.4 15.8,20.5 C15.8,16.6 15.2,13.2 15,11.9 C14.9,11.7 14.9,11.4 14.9,11.4 M7.2,5.7 L6.9,5.1 C6.9,5.1 6.9,5 6.8,5 L6.5,4.4 C5.8,3.1 5.2,2 4.8,1.4 C4.6,1.1 4.5,0.9 4.5,0.9 C4.3,0.6 4.1,0.6 4.1,0.6 C4,0.6 3.8,0.7 3.7,0.9 C3.7,0.9 3.6,1.1 3.4,1.4 L2.5,2.9 C2.4,3 2.4,3.1 2.3,3.2 C2.3,3.2 2.2,3.3 2.2,3.4 L2.2,3.5 C2,3.6 1.8,4 1.5,4.4 C1,6.2 0.7,8.1 0.7,10 C0.7,14.2 2,18 4.3,21.2 C5.6,18.4 7.6,15.6 10.2,12.9 C9.3,10.2 8.2,7.7 7.2,5.7" id="Shape"></path>
                <path d="M24,8.2 C24,7.9 23.9,7.6 23.9,7.4 L23.9,7.2 L23.9,7.1 L23.9,7 L23.9,6.9 L23.9,6.8 L23.9,6.6 L23.9,6.5 L23.9,6.4 C23.8,5.9 23.6,5.7 23.2,5.7 C23.1,5.7 23,5.7 22.8,5.8 C22.8,5.8 22.6,5.9 22.3,6 C22,6.1 21.5,6.3 21,6.6 L20.8,6.7 C20.5,6.9 20.1,7 19.8,7.2 C18.4,7.9 17.1,8.6 15.8,9.4 C15.6,9.5 15.4,9.6 15.3,9.7 C15.8,9.9 16.2,10.5 16.3,11.1 L16.3,11.2 C16.5,12.3 17.3,16.2 17.3,20.8 C17.3,23.8 17,26.5 16.3,28.9 C17.5,29.1 18.7,29.2 19.9,29.2 L20.7,29.2 C20.8,29.1 20.8,29 20.9,28.9 C23.7,24 24.3,17.6 24.3,13.1 C24.3,11.3 24.2,9.7 24,8.2 M24.8,21.6 C24.2,24.4 23.4,26.9 22.3,29 C25.9,28.5 29.1,27.1 31.8,25 C31,24.5 30,24 28.9,23.4 C27.5,22.7 26.1,22.1 24.8,21.6 M9,6.2 C9.7,7.8 10.4,9.4 11,11 C12.5,9.8 14.1,8.8 15.9,7.7 C15.9,7.6 15.9,7.5 15.8,7.4 C15.8,7.3 15.7,7.1 15.7,7 C15.7,6.9 15.6,6.7 15.6,6.6 C15.2,4.9 14.8,3.6 14.6,2.8 L14.6,2.7 L14.6,2.6 L14.6,2.5 C14.5,2.1 14.2,1.9 13.9,1.9 L13.8,1.9 C13.7,1.9 13.6,2 13.5,2 C13.5,2 12.8,2.5 11.6,3.3 C11,3.8 10,4.5 8.8,5.5 C8.8,5.7 8.9,5.9 9,6.2 L9,6.2 Z" id="Shape"></path>
            </g>
        </g>
    </g>
</svg>